/* XPM */
static char *b91dc968ea824e7bf37f4731119744adl9PoqP8hs1G9yKqd[] = {
/* columns rows colors chars-per-pixel */
"64 64 79 1 ",
"  c gray23",
". c gray24",
"X c #3E3E3E",
"o c #3F3F3F",
"O c gray25",
"+ c #414141",
"@ c gray26",
"# c #434343",
"$ c #444444",
"% c gray27",
"& c #464646",
"* c gray28",
"= c #484848",
"- c #494949",
"; c gray29",
": c #4B4B4B",
"> c #4C4C4C",
", c gray30",
"< c #4E4E4E",
"1 c gray31",
"2 c #505050",
"3 c #515151",
"4 c gray32",
"5 c #535353",
"6 c gray33",
"7 c #555555",
"8 c #565656",
"9 c gray34",
"0 c #585858",
"q c gray35",
"w c #5A5A5A",
"e c #5B5B5B",
"r c gray36",
"t c #5D5D5D",
"y c gray37",
"u c #5F5F5F",
"i c #606060",
"p c gray38",
"a c #626262",
"s c gray39",
"d c #646464",
"f c #656565",
"g c gray40",
"h c #676767",
"j c #686868",
"k c DimGray",
"l c gray42",
"z c #6C6C6C",
"x c #6D6D6D",
"c c gray43",
"v c #6F6F6F",
"b c gray44",
"n c #717171",
"m c #727272",
"M c gray45",
"N c #747474",
"B c gray46",
"V c #767676",
"C c #777777",
"Z c gray47",
"A c #797979",
"S c gray48",
"D c #7B7B7B",
"F c #7C7C7C",
"G c gray49",
"H c #7E7E7E",
"J c gray50",
"K c #808080",
"L c #818181",
"P c gray51",
"I c #838383",
"U c #848484",
"Y c gray52",
"T c #868686",
"R c gray53",
"E c #888888",
"W c #898989",
"Q c gray54",
"! c #8B8B8B",
/* pixels */
":,,3336NIbssr663666336wxk6636,:::,,3336NIxssr633663636rHAw336:$,",
",:,63,NrrIgw6663,33333x::b3,3$$$::333,NrrIsw666333333,HrwH3:3:$:",
"336w6NrrsrHw,,63663,6N6,:$x3,::$,36wwNsrswHw3,63663,3Hs336N3::$:",
"366wNsssssgN33333366b63,,::b6:$,33wwNsrsssgN3,333336Nw66,3wN6:$3",
"666NgssrsgrgA3:,,33b6,63,,$3b3$666wNsrssssrgA3:,3,3b3,3,3333x3$6",
"66AgsgggrsrgxN3,,,bw336633::3Nw636AgssrssrsgxN,:,,b3,,,,333:,bw6",
"wNsr6sggrrsgsgA@$N36,:3rgw,33wA,,NswwrggwwsgsgA@$b3:,3,,633,,3b6",
"Ns6r6wrsssssrrsbNr36w,wggr,66rrNNw663wrsssrsrwsbx$:,333333333,,x",
"Arrww3wggw,w63rHIrrsrsssgrw6wwsAH3,363wggr36w3wIH$:33633,33,,:,N",
"kHw,,,wgr3:,63NsgHkrggrwggg6rrA66H,3336r66:,63ArkH,,33363,,33,Ns",
"srH3:,3366336NrsgsAxgsrssggsgA6636A33333,3336AwsggA63363,,,6wNss",
"gggb3$,:36,3x66wsrgHgrgsrsssNw66336A3,3,36,3x66rsrgH6,,3333wAsrs",
"sgrgN::,,36b636wrrgsAgsssrsA,:3,3,,wA6336w6b666wrssgA633366Asrss",
"swskxx::,6b3:366wssrrArsrrNw:::,63336A336wb3:366wrsrrN333wAgsssg",
"swsgsgb,:k,::3,3w6sr33AswNr3:,,363333,Hw3x,::,,3wwrr33N63Nswwrsg",
"srsrrwsbx:.,,$$:,6ww663AIsww,,3,3363,,,AN:.,,$$:,6rr666NAw363wrs",
"sr36w3sNN,:,3,::$www366HIs6636,33633,,,HH::,3::,$6ww36wAH3,33,wg",
"w3:,33b,3N33,,,,,6666wAsrHswrww6,66,:3NwwH33:,:336666rH,:H33636r",
"33,3wb3,:,A3,,3633636Agw3,Ns,wr666333Nw6,6H3,:363363wA6,,3N6,336",
"66,6x,,3,3wA366633,6Axsrw66Arwssr6,3brw333wA366663,6Ar663,6N6,33",
"w6wN3:,,,6wrAw663,3bgggs6,33Hsrrsw6b3:3,3,,wH63w3,6Nrwww3,,3N633",
"6wNw3,,:,,66wA66,3Hgsrgr3:,,3NswssN33,,,363,6H66,6Nw36rw3,,,wA66",
"rNw,,:,,,:363wA63Hssgrrsr36633NkxA3,,,3,6363,3H33A6w6w6ww3333wAs",
"A3,,33,:$,3,6,3NHsrssswsgs6,:,:HI$,,333,3363,,,II366wwwrr63,336H",
"b,:,363:$$$366,HHwrsrgsggg,,,,:Nx$,,363333,3,,3EEr3w6wwwrr33,3wN",
"wH3,3633:::$$wHgrAsrssgrww3,:$A:@b:33636,,,,:wRsrIs6w6ww366636Aw",
"63Ar,333,,:$3AswrrNssgsw,,:$,A,,,3b33333,,,,6Ir6rwIg,36333336N,3",
"63,Aw,3333,6Arw6w66Nsg636,:3A6,,,:6b3,3336$3Rrw6w36Is33363,6Aw,6",
",3:,Ar,3366Hw,w3,::,Ngww633A63333333x,3336rR6,r3,:,:Is:,3,3brw,6",
"::,::Hr,3wAswww6,,::rNswrrA6,366363,wb,,36Rw6ww6,,::wIg,,3Hsw663",
",:,,,,Hs6Hswsrw33,:366NrrH3366333666wsA,3Rs6gr633,:,63Hs,Awrr6,3",
"::,,3,:ARkwws63,,3,,666AI33,3333,33rsssHRgwwsw6,3,,363,RRwrrw3,3",
":,,,,:3NIksss6,33633,36NHw333,,,36wswwsIEkssr33,36333,6IRwwwww66",
",:,63,NrrIsw6663336,36b:6Ir33:,336wswsI6rRsw6663333333IrwIswrww6",
"3,6w6AsrsrHw,,6336336b@,3wIs$::,6wwwrIw66rI6,,63663,6Hr636Hsrrw6",
"366rNgrrsggN333,3336k@@3666Iw,:,3w,wHrrrrwrN33333336Nr63,33Nss66",
"63wNssrssgsgA3,,,33x$$:::,63Is3w66sHrrsrrwwgA3:,,36x3,3,3,,,Nsww",
"6wAgsgggrrrgxb3:,,x::$$:,:3:$IgwwsIrrrsswwwsxN,,:,b3,:,,33336Arw",
"wNswwssgrwggsgA@$b:$,:@:::3,,,RkkRw66rsrwwrgsgN@$b3:,33,63633,Ir",
"bs6w6wrssssrrwsNx$,,,:::$::3,::EE36636rrrsrwswsbx@,,33333333,:,H",
"Arrw6,rgkr36w3rHA$,33333:::,,,3NH36663wsrw,6w3rHH$,,3333,333,,wH",
"wHr33,wgr6::63ArgH:33633,:,3,3N6wH333,6gr3,,63ArgH:33636,,,,,rRw",
"63A3:,3,66,36NrsgrA3,363,:36wA633wA6,36336,36NwsgkN63333,,,,wR36",
"333N3$,,36,6x66rswrH3,,3333wHww33,rA6,,,36,3x66rsrgH6,3336:6Iw66",
"63,6b,:,,33b636wsrsrA33366rH3$3,3,,rA33,36wx636wrssgN63,33wH3,33",
"63636b::,6b3:666wrssrA3366Aw,:,,3636wN333wb3,366wrsrsb333wI6,,,3",
"63633,b,:k,::,,36wsr36A36Hr6:,,36333,3N63b3::,,36wrr33N6wH6333,3",
"3333,,$bb,.:3$@:,6rr666bRrr6,,3,3363,,,NA:.,,$$:,wrr666NI63,3333",
"3333:::bx,:,3,:::wwr366AIg663633,33,,,$xA,:,3,,,:www,6wHRw3333,3",
"3663:wb$$b63,,:,,6336wI,$Iswwww3,w63:6x:,N33:,:,,663w6HrrHw666w6",
"w3,3wN,,,,b63,333366wH3,:,Hs,wr666,33x3,:3A3,:3633336Hsw66Ir:3rw",
"r6,6A3,,,,,N66666,36Hw,,,:3Ar6gss6,3x:,3,,wA36663336Akssw3wIw3ss",
"srrN3363,,:,Aw3w333Nr363,,,3ArwrswwN6:,,36wrA66w3,3Ngkgr6:36Hrrs",
"ggA3,36633::6H63,3H6,33333,,6Iw6rgAw333::,66wA66,3Assrgr3:3,6Nsr",
"kA33,33wr6,33wI63A6336333,,36wIwgHw63$::::363wA36Argsswsr36636Nx",
"H,33366rww333wwRR633336333,,66wRH363::$:$:33333NHssssrrsgr6,:,:A",
"Aw666wwrww6663sRIw333,,,3333,36HA:,3:$$$$:$,66,AHrrssssggg3,,::b",
"rIs6w636wrr6wrIrrRw66,,3336336H,6N@@$$@@$::$$wHssbsrrgsrww3,::b3",
"wwIs336wrrrwsIrwrrHs::,3633,6A:,3rb@.:$@:$,$6AswwrNgsgsw,,:$:x$3",
"636Is3666rrsArw6636Rw,,,3336A$@366rb@@$,6,:6Asw3636Nsgw363:3k@$3",
",3:,Is,66wsHw,w3,:,,Iw:,3,6A$@@,:3:3x@ $3:3Hr,r33::,Ngww633x$.$,",
",:,:3Is36wArwww6,,:$6Is,:,N$@:$$:$,:,k@$,3Aswww6,,::rArwrrx.@:@:",
",:,,,,Ir6Hrrsrw,3,:366Ir3N$ @$@$$:3,33x$,Hsrsww,3,:366Arsx. $$@$",
",,,3636HRxsrsr63333666wHN3::::$$:,,3336xAxrrsw6633,366wNx,:,,$@:"
};
