/* XPM */
static char *_d8e95f18d964f499dcd13ce44581066rgvSE8yI5w97sWqY[] = {
/* columns rows colors chars-per-pixel */
"64 64 147 2 ",
"   c #2F2D2A",
".  c #312D29",
"X  c #34322E",
"o  c #3A332F",
"O  c #363431",
"+  c #3A3533",
"@  c #3C3A36",
"#  c #3E3C39",
"$  c #413B37",
"%  c #423E3B",
"&  c #45413D",
"*  c #49433D",
"=  c #454341",
"-  c #4A4642",
";  c #4D4945",
":  c #4E4C49",
">  c #514746",
",  c #524C45",
"<  c #524E4A",
"1  c #584E4C",
"2  c #55514D",
"3  c #59534D",
"4  c #5C584D",
"5  c #534F50",
"6  c #565451",
"7  c #5A5552",
"8  c #5D5955",
"9  c #5E5C5A",
"0  c #615755",
"q  c #625C55",
"w  c #635E5A",
"e  c #685F58",
"r  c #656056",
"t  c #696157",
"y  c #65615C",
"u  c #6B645D",
"i  c #6E695E",
"p  c #716A5E",
"a  c #666462",
"s  c #6B6662",
"d  c #6D6964",
"f  c #696668",
"g  c #6E6C69",
"h  c #706762",
"j  c #726B64",
"k  c #736D6A",
"l  c #786F6A",
"z  c #767066",
"x  c #797167",
"c  c #75716D",
"v  c #7A736D",
"b  c #7C786F",
"n  c #757472",
"m  c #787471",
"M  c #797470",
"N  c #7A7571",
"B  c #797671",
"V  c #7A7572",
"C  c #7B7672",
"Z  c #7A7673",
"A  c #7C7774",
"S  c #7D7777",
"D  c #7A7572",
"F  c #7E7975",
"G  c #7C7974",
"H  c #797778",
"J  c #797779",
"K  c #7A7879",
"L  c #7D7B7C",
"P  c #7F7D7E",
"I  c #7D7C7A",
"U  c #80766F",
"Y  c #817770",
"T  c #807B77",
"R  c #817C76",
"E  c #827A74",
"W  c #817B7B",
"Q  c #817C79",
"!  c #827D79",
"~  c #837F7C",
"^  c #827E7C",
"/  c #7F807B",
"(  c #848077",
")  c #80807E",
"_  c #82817E",
"`  c #888179",
"'  c #7E7F81",
"]  c #817F80",
"[  c #7F8180",
"{  c #838280",
"}  c #838383",
"|  c #878181",
" . c #848381",
".. c #848482",
"X. c #868583",
"o. c #838584",
"O. c #858585",
"+. c #868686",
"@. c gray53",
"#. c #848483",
"$. c #888687",
"%. c #8B8786",
"&. c #888784",
"*. c #868887",
"=. c #8A8985",
"-. c #8A8987",
";. c #898986",
":. c #868588",
">. c #898788",
",. c #888689",
"<. c #878988",
"1. c #888888",
"2. c #8A8889",
"3. c #8B8A88",
"4. c #8B898A",
"5. c #8B8B8B",
"6. c #8C8A8B",
"7. c #8D8C8A",
"8. c #8E8D8B",
"9. c #8A8A8C",
"0. c #8B8B8D",
"q. c gray55",
"w. c #8D8D8D",
"e. c #8E8C8D",
"r. c #8F8E8C",
"t. c #8D8D8F",
"y. c #8E8E8E",
"u. c gray56",
"i. c #8C8B8B",
"p. c #908F8D",
"a. c #918E8D",
"s. c #90908E",
"d. c #91918F",
"f. c #92918E",
"g. c #8F8F91",
"h. c #8D8E91",
"j. c #918F90",
"k. c #8F9092",
"l. c #909090",
"z. c #939290",
"x. c #909092",
"c. c #959492",
"v. c #939292",
"b. c #989697",
"n. c #989994",
"m. c #979598",
"M. c #9B9A9C",
/* pixels */
"n n n c n g d l M M v v v g r j j j p p j j p p u w ) t.k.k.o.9 c c c c v v c v B C C u ; ; ; ; : : 3 3 3 3 9 ,.t.3.3.g < g k j ",
"n c c n c s c M M v c c c u y j j j i p p p i p j q a.3.9.9.<.9 m k m l M c v c c c c 2 q y u u i j i i p j a ,.z.t.c.+.: v v c ",
"n c n n f s m k M c l j k w u j u p j p i p i p u < a.&.*.*.[ 9 n n m c v v c c c z 2 r z i p z p p i p p y d 0.0.t.f.7.< C c C ",
"n n n d < m c k k k k g k u u d j j j p i i u h d 7 &.9.*.*.9.: 2 7 w s u 8 g j g u , i i i p p p p p p j w s 3.&.9.f.z.6 c S M ",
"a a 6 @ = y y : 8 9 w f a ; ; 7 8 y u u u y u u s : g _ ) ) n - 8 y g k s @ = c g # r i i p p p i p p j j 7 w :.} 9.h.h.- 8 w 8 ",
"= # 8 g s $ + 8 g n J J J L L J a @ ; q e r : w s q w g s s 9 7 l c c c C ; # g ; - d j j d p p p j l x j 4 k X.+.] j.f + : a k ",
"= 6 / / T w w 7.t.t.9.9.9.j.h.9...& q p p i 3 C R ! ! F c g g w k k c C n a + @ X 4 g z d i u d p p j i u 1 ! &.,.9.c > f W ] W ",
"# 8 I G F y a 3.+.<.:.9.9.9.0.+...: p j j t 4 Y F R F F B c c q k k c c n G g 9 : - ; , * 2 1 , 4 3 4 , % % s s 8 : @ k W W S k ",
"% 7 T T W y 9 h.' } :.9.<.:.o.} K : g p p i y E E Y b F v v v 2 m m g d c m m S S S c f < C D Y v E U U F Y v j d 2 o 2 9 7 5 5 ",
"& 6 T C S y 9 ,.P } :.<.+.:.} ' n 5 z j z t i E E b b b F v j 3 k m k k c m m m S M S l e C W E Y Y E E T Y v Y C c < g n J J J ",
"# 2 S D V 0 f ] } [ +.<.:.:.:.J G < d i z i d E b v Y F Y v F u c m k c m c m m C C S 7 u T E T E E E E Y Y U v c g w -.j.z.v.k.",
"% 6 T m S 7 f ,.' } } o.:.] ' n I < j j z d j F Y Y Y T v v v q M S m M m c k l c C g 2 v T E E ` E E Y U U v x x j 9 -.t.h.h.z.",
"& 6 G M m 5 f ] } ' ] } ' ' J n J : d i j i s T T Y R C g z c y m S C v j k d f m n 6 d M S Y E E E Y Y v U U v c g 6 -.9.t.z.v.",
"% 6 S c c 5 w ,.:.:.:.,.' f ' ' L - j j i u y R C v v F n g 9 2 S S S C k k f k k d < H M v C T Y v b b v v v v v y 8 +.+.7.h.m.",
"= 7 ! C n & % n ' L ' ' n = 8 9 5 $ * - - % $ y j g c j 6 & O # < y k H L l s d f 3 w c l l l H v c v j v v v z v 8 y [ / o.h.k.",
"= = 8 8 : X @ + # ; 6 5 > : ; 5 7 8 w 0 % - 6 w w = g H / K n a + ; = & 2 w < s f % l k l m m l l k c u y g l v c : c I L [ <.u.",
"# # : 3 q r y y < 8 s s u s s d s d s a 7 k S c n 6 / / / K / / < s s w 1 - @ @ + @ < < : : = 5 < : : = X # & & & & / / / [ [ [ ",
": a u j i z i d e w s s s h k h d k s w 0 k c m K 6 / K / n n / 0 s s d s f k 8 w y w 8 : X g 9.9.:.] f 2 a r r a r 6 / / n g g ",
"s d j p d i u j 3 e d h j j g s h h f e 6 l m S G 6 [ I H n n K 7 s h h h j j h s e y s 6 a v.h.h.,.h.' 6 z i i i z 9 & 6 a J J ",
"d p p p p i p u , w h h j g s s a e a a ; M M S G 5 o.K n n g n 6 s h j k j j u u w f 8 : h.h.k.h.h.,.' 6 z i i i i n 4 f [ / n ",
"j j j p j d i y - d d d s d s a w a e f ; S S S I 2 o.n g g g n 6 s h j j j s u u s a # ' h.h.k.h.h.9.:.: c j z i g g 6 g / J n ",
"u p u y u d s 8 - g f s s w s w a w a d ; m W W / 2 I n n n n K ; h h h j h h s d k % 9 z.h.9.0.,.' ' :.= 8 r 9 r 6 : # 6 n n n ",
"3 1 3 3 2 q q 6 ; = = < < - 3 8 0 w a s % j ~ W ( ; g g n g K a X - 0 w w 8 3 7 ; + . w 9.9.h.h.9.' ] :.H = < g / / [ [ 9 # 9 a ",
"u j c l c k k c f > 9 W S L H g 8 < > + + - 7 0 8 2 2 ; : : = # % - $ $ 7 w w w f 7 O = = : 6 f g ' ' ] +.f n d.h.<.<.h.[ 9 n g ",
"c c x v c c k k k > J } 3.a.3.7.,.} ! < F E E ! E E ~ ! ( z # d m m k > c k k k m s = k s a w w 8 7 8 q 6 & g 7.*.*.<.<._ 9 n b ",
"c v v c l c k k d : J ] &.&.+.-.+...k 8 ` E E Y E ! ~ ` ( b ; c k l k 7 k f f k l w < d s s h j d g s s g 4 g 7.<.*.<.=./ r B B ",
"v c v c k k k k k < L W ) ) P )  ...2 8 E U Y x U E ! ` b t , c c c f 7 k k h k k 8 6 s s s s s s s s s j 8 d -.*./ _ / / 8 B B ",
"c c c j s f k c g < ) I I ) ) } P } , y E Y U U U E E U c 8 7 C m k 0 7 h s s f k q 3 u s s f s s s u d d 8 s &./ / / / / 4 B B ",
"c c k d f d s k $ 6 P I L F W / L ! , s Y v U v U E x x l v 7 v v l q 7 s e e d d r 8 u w w a a w w s w w 9 w X./ n / / / 6 n c ",
"k g k d d s k <   y / G F F I G G I : j Y v U v U U l x l l 7 C k D 6 6 s u s k j 1 2 r w e 0 w a 7 7 w u 8 7 &./ n / _ a : n c ",
"s g g d 0 7 < = O - W I G G I I ' I - c E z z j x x U U F l - c k s $ X & - * * ; $ * 2 1 * $ * > - < 8 2 - @ & & # & #   6 / g ",
"w w 7 5 8 w g c g @ a H / ) I n a % X y b x x l p j y 0 4 = o - = % : w u j 3 8 j j c c l l 7 5 a s s f d d 2 9 B j g y 6 @ 2 9 ",
"r a z g g / g / / : X X & , 8 , * * * * * @ * # 8 9 8 r 6 O 2 g j s u j s k 1 s x b Y x b b k 8 s s s k k m < e c j s s w : W } ",
"n / n g g g g g / a X 9 : i d z ( x ( z i d 4 9 d.s.z.z.n.8 8 g j s s j j e % v Y v b U x b k 8 d g g l d f 6 0 c j s e w a h.z.",
"n g g g g g / g g a : / 8 p p p p p p p i t 4 / 8.<.<.=.n.: y c j j s s l 1 , E E b v l t q * q g k c k d s < 6 k h s e 9 g t.z.",
"/ g / g g g g d g 2 g / r i p p p x p p t r , =.d.=.<.<.s.; i g k l l l l % e E Y v Y 3 y y 3 q k c k g d k < 1 d s s s 8 c 7.k.",
"g g g g g n g d 4 9 / / w q j p p p p t t r * =.7.=.=.=.7.& i i j l c v j % x E v Y Y 3 v v C e k k k s a k 1 5 y d y a 6 G 3.k.",
"z g z g g g d a 6 / n g u q p z p p t t 4 r & _ <._ [ =.&.& a i d l v l e , Y Y l x v > v v v 6 k d f a w s 0 > s a j z 2 o.8.d.",
"g / g g g n c ; d / B z u 8 i j p t t t t 2 n _ *./ / / / * g g j j l u 3 7 E Y l h v % v v M > g g c d k m > - g j c g ; &.8.<.",
"4 a a / g 9 : O : g B G e 0 u j p t t 4 t 2 _ / *.&./ / _ : d y s u u u * l T l D v j o u C W $ = = - > > = X . * < 2 ; X & : 6 ",
": : 9 6 # & ; : , , 2 2 ; * 4 3 4 r h p 0 4 z.%.9.+...) ..& d d s u s 8 + e > $ % $ + @ + % > + . + + o . + < 3 8 8 7 0 e r q 8 ",
"/ [ d.w.= 4 a 9 y t r r y 4 % 1 4 * 1 > * * j j m ) ) } 8   & 2 & ; & $ 6 8 6 7 1 $ - k 7 * s j d s w q % 2 k s y w e e y p j p ",
"n.n.n.h.; 8 r r t u u u p q q j p j l j s s w ; @ # + O O & = & - 5 2 : k k s s m 6 7 k s k j j d s i d - 4 u s y y y e u j i j ",
"k.[ k.h.: r r r t p p p p q s h p U l D l k k w c k < 7 a a f a a 9 8 2 g g g s d : 8 s k l j j s s y l & 1 u h u h i i p u p j ",
"3.3.u.<.; 9 r i p p u p h 0 h h k l S Y D k s l v c w s g f g d y a 6 6 g g c s s = 8 d k D l l h u s j - 1 u h j j j u u i j j ",
"3.9.t.*.; r r i p p t p s 0 k f k l W T T l l D l y w g g g d d a a : 6 c c c y a # 9 k m Y D j h s a d % 1 u s l j x h u j j l ",
"3.<.3.8.2 r r i p u h l h 7 f l l V Y C D l M M k @ & : 9 9 r a g a = : n c c s w # 9 k l D l j j s a s % < e a e e h s e p l j ",
"<.<.w.8.y 4 4 r e u i j e 1 k k l l S v l l l l 1 : 8 ; X @ & & ; & O & n v B c s & 6 d k m l j h e s w @ < 0 e w w s e e l j h ",
"9.0.k.z.8 q y t u u w 0 1 = h j k c v l l j l k % k j h * r 8 u t 4 * * 1 w w s 9 & < d k j d s e s a 0 o : w 0 0 e h f d j s w ",
"9 6 6 8 & & 7 8 q 4 3 1 1 * % 7 a n M M l k l 0 1 k k s * z r p p x p j 4 - < & + X & 6 g g l g d w 7 - X $ 1 w 0 > % 5 = % % ; ",
"a a a 9 a s > & 0 w j j h h - < 6 6 6 6 a y y = w j k w * p t p z p p j j c z g & c 8   X @ # = % % $ X @ & = o - 1 5 1 8 a s d ",
"c n G G n G w < j h s j h h < e n / n a 6 : ; + + % - % , j p p x j z p j z x q 6 _ c # g c s g n ] n ] a.a.a.6 j l k k k k l m ",
"n c n g g n 8 2 j k d d d d 5 d H / H / / / H / L S F & 4 p p j p j p p j j z , z _ c ; 7._ ;.u.x.M.m.m.j.a.a.w s k k k k c c l ",
"n c g d d n w : k j j j d f 1 d H / n H J K L [ I L &.8 r p z z j p p x z d t * I n n - / / o.7.m.M.M.j.j.&.%.w s f k k k c c m ",
"n c c k g n y = h k j j g s 8 g / H n H n K / / n I } : r j z p p u u p p z 2 6 / / / 6 a &.<.8.m.m.m.m.4.H _ 6 k f k c m c c c ",
"n n n c c k a & h j j g s s 8 n / / / H H K J G } s = O * r i i t u p e i d & d z n / y 9 ;.8.8.x.m.m.j.3.L T 3 k s k l c k k m ",
"k M H m c l g @ f k d k s d 8 n ) I n n G n / / 6 X 9 g y 6 * : q 0 8 q g e * c a c n g 6 s.z.z.u.c.c.c.s.o.c < k k c c k k n k ",
"< w w w w 8 1 o 1 y a s w w = n ) n c n n / / 6   - c g c z z ; o o + & 1 : @ % & 8 a y 2 _ _ s.c.c.n.8.I -.s & f w s w w 8 5 6 ",
"< s w w 9 8 1 % = 8 7 7 5 O   a o.a k s 5 5 & & & & d g c g g ; * q u s y y s w 2 & X   @ 9 a z n / B 2 ; & % & > - ; @ + 5 9 f ",
"y M m k k m H 8 k :.:.a.k.c X = 2 : 2 2 9 y a d a & d g z g g ; 3 g g j g u s j g 8 & y ; @ 6 6 2 < 2 2 8 u l c l l m 6 < n n c ",
"h l l l k k k 5 I H I 9.k.' < s s d u u d i d u d * d g g d g ; 5 g d d u e w d y & d n d = d e u d d l c x v z j l j 8 : n n c ",
"k m l l k k a 6 o.I [ 3.k./ : s u u j j z d u r i 2 a g d f g - & w 7 7 < 2 0 a : y K n k ; a s d d j j x x v z j d g y = n c n ",
"k v c k k k : g <.o.-.7.a...- a y s p j d p i i y 4 g g f g f = + # # # # @ # & 8 n n n s : e 0 u j j z z z j j p i s 8 = n c n ",
"d g s s a 8 : m 9.9.7.f.7.) 2 w e s i j j i i i a 4 g g f c f = # # % % # # $ - f n c n s < e e i j j j z j d i j u a 6 : f g f "
};
