/* XPM */
static char *a89de61fecad46a8d616244bef8f47cdkk6UeFby5I4VE2bc[] = {
/* columns rows colors chars-per-pixel */
"64 64 111 2 ",
"   c gray20",
".  c #353535",
"X  c gray21",
"o  c #373737",
"O  c gray22",
"+  c #393939",
"@  c #3A3A3A",
"#  c gray23",
"$  c #3C3C3C",
"%  c gray24",
"&  c #3E3E3E",
"*  c #3F3F3F",
"=  c gray25",
"-  c #414141",
";  c gray26",
":  c #434343",
">  c #444444",
",  c gray27",
"<  c #464646",
"1  c gray28",
"2  c #484848",
"3  c #494949",
"4  c gray29",
"5  c #4B4B4B",
"6  c #4C4C4C",
"7  c gray30",
"8  c #4E4E4E",
"9  c gray31",
"0  c #505050",
"q  c #515151",
"w  c gray32",
"e  c #535353",
"r  c gray33",
"t  c #555555",
"y  c #565656",
"u  c gray34",
"i  c #585858",
"p  c gray35",
"a  c #5A5A5A",
"s  c #5B5B5B",
"d  c gray36",
"f  c #5D5D5D",
"g  c gray37",
"h  c #5F5F5F",
"j  c #606060",
"k  c gray38",
"l  c #626262",
"z  c gray39",
"x  c #646464",
"c  c #656565",
"v  c gray40",
"b  c #676767",
"n  c #686868",
"m  c DimGray",
"M  c #6A6A6A",
"N  c gray42",
"B  c #6C6C6C",
"V  c #6D6D6D",
"C  c gray43",
"Z  c #6F6F6F",
"A  c gray44",
"S  c #717171",
"D  c #727272",
"F  c gray45",
"G  c #747474",
"H  c gray46",
"J  c #767676",
"K  c #777777",
"L  c gray47",
"P  c #797979",
"I  c gray48",
"U  c #7B7B7B",
"Y  c #7C7C7C",
"T  c gray49",
"R  c #7E7E7E",
"E  c gray50",
"W  c #808080",
"Q  c #818181",
"!  c gray51",
"~  c #838383",
"^  c #848484",
"/  c gray52",
"(  c #868686",
")  c gray53",
"_  c #888888",
"`  c #898989",
"'  c gray54",
"]  c #8B8B8B",
"[  c gray55",
"{  c #8D8D8D",
"}  c #8E8E8E",
"|  c gray56",
" . c #909090",
".. c gray57",
"X. c #929292",
"o. c #939393",
"O. c gray58",
"+. c #959595",
"@. c gray59",
"#. c #979797",
"$. c #989898",
"%. c gray60",
"&. c #9A9A9A",
"*. c #9B9B9B",
"=. c gray61",
"-. c #9D9D9D",
";. c gray62",
":. c #9F9F9F",
">. c gray63",
",. c #A4A4A4",
"<. c #A5A5A5",
/* pixels */
"V f j u j ) ) Q { o.o.) ) _ &.O.{ L F F F b f 1 8 b G G L L Y G j j b f f f j b f b Y F f s w w N N j j w j Y _ ) Q L G L G 8 u ",
"w j s j { { { _ _ o.o.) L { &.O._ G N V F N f u 5 5 F L L G L F f f f j s f j N s Q F b s w X - u f s j L o.o.{ o._ Y F G G b 5 ",
"5 1 u ) _ { Q ) ) ) { { L o.O.:.) F G L G N s 8 8 s 5 L L G Y Y N j f f j s b F - b s 5 j G F Y Q _ o.) _ { { { o._ Q G N N V f ",
"u * b _ L _ Q _ { { _ O.o.o.:.o.) Q G L L b u 8 w j 8 5 L Q Y L b f f s b N b 8 f F L ) ) Q ) { { _ _ { _ { _ { O.) L b F N V b ",
"w u 1 Q L G L Y { o.Q o._ o.o.) _ { G G G b w 5 5 s f - f Q Q Y V b s f f j s Q { _ Y L Y L L Y Q Q _ _ _ { O.:.o._ G j N F V N ",
"u 8 w N Y V V G L ) _ &.:.{ _ _ Q F G G N j f u w w s w F Y G L F f s f s f _ &.{ Q Y F F V G V L Y ) o.o.{ _ o.) Q L F N F F N ",
"s f 1 u _ Y G G F G ) _ ) _ G L Y G G F V f u s f u w w V Q V F b s u f N O.:._ _ ) L V F V N b N V G Y ) ) Y Q F V V b f s j j ",
"s 1 f j f j G L G G Q Q Q G F G F V N F F f u u w u f s 5 Q N b j u j w L _ { o.Q Y G G F F V V F V N F F V G Y V b N f u w j V ",
"f Q o.{ L f u f V L Y Q ) Y Y Q G F V G V f w u s u u s X s j j f u w - F _ Q Y L L L Y L F V V F F F G F G G F j s s u u f b 1 ",
"{ _ _ ) _ Q V s w u N L Q Q L F G Y L F V f s s s u j w X u N V f N Q o.b F Q G L G G Y L G F F V G F N N F j j f f s f f s 8 w ",
"{ { { _ Q Q Q F b f u u j j b N G Q Y G b u u w 5 s b - L _ _ o.{ { { { Y s ) Y Y Y L L V F L L G G F u s f f s f f s s u j @ F ",
"_ { o.) ) { _ L L Y G N b u w u w V N s s j s w w u f j O.{ _ _ { _ Y L F j f &.Q L Q Q V F G Y Q V j w s f j b f j f w f j - _ ",
"Q ) _ o._ Q ) Q ) ) Q L F F F N b u w s f f s s j f - Q O.o.o.Q ) Q G L F j @ V o.Y G Y L V F L F j u s s f N N N f f s j 1 5 { ",
") _ Q Q Q Q Y ) ) { { o.L L G G L L j u w w f j N w b o.o.O.) F Q Y G b j f X @ j Q L L F L L L N u w u u w f N f f s s 5   j { ",
"{ { Q ) _ ) Y Y Q ) ) _ Y Q ) Q Y Q Y F V s 8 u - F Q Y ) ) L L L V b b V 5 s s 1 f G Y G L G L V f w w s s s s u s w - 8 1 w { ",
"{ _ ) _ ) Q ) Q Q Q Y ) ) L ) _ Q F N N V F F X N o.{ Y L F F F b u j s - G _ ) L s F L G G F F V j u w f j 5 5 5 s 5 Y Q F s j ",
"V { _ { o.Q Q Y ) _ _ _ _ ) Q O._ L b V F b b 8 N { _ ) F F V b f s 1 * L _ ) { { Q j f Y Q F N V s w u f u u s s @ L o.G V b w ",
"u { O.O.O.) Q Y ) { { o._ { { { L N N j f s s N s L { L F N j u w * s { { _ o.o._ Q G s f Q G V N u w s u f V N u G O.Q G G V N ",
"f s Y Q L Q Q _ _ o.{ { o.o._ ) L N N s f j f f N w V F j 5 - 5 s Y :.&.o.o.&.&.o.G V V s 5 G G b u u u j V f f Q o._ Y L G b N ",
"s 5 5 b G F L Q _ { _ { o.Q ) L F N s u u f N V j 5 * 5 s V Q O.{ o.O._ O.{ O.{ { Y G F j f 8 j b u w u u 8 j o.o.) Q Y Y G N j ",
"u u u 5 V F L L Y L _ { o._ ) F V F f w u s s j f w * Q O.o.) Q L ) ) Y _ { O.:.o.Y L G N f u - 1 8 j N G Q o._ _ ) Y Y G V F j ",
"j s u s f L G G L Y ) _ _ Q G L G b u u s w w s s w w &.{ ) ) { { ) Y ) o.{ o.&.{ Y Y L b f f 5 b { { Y Q Y _ _ Q L V F F F G b ",
"f u u s j Y V V G Q Q ) Q L N G G b w w s u j b b X Y &.) _ ) Q ) Y L L ) ) _ ) Q G ) G j b f u j _ Q ) Q _ Q Q Q G N L G G N j ",
"f s s s 8 G F G G L Y Y G Y N F V s 8 w s u j f f 5 _ ) Y Y _ Q ) _ o._ &.{ ) G Y L Q N s N f w j Q L F G G F L Y Q L L V N j j ",
"b b j j u 1 F F F F V V F V N N b s 8 8 u f f j 1 8 o.Q Y _ _ _ Q Y { Q o.O.) L G G G V j f s u N Y F N V V V G G L b b f w f b ",
"j w u w 8 1 j L L F F V G Y F N s s u u s f s s @   N ) Q Y _ { Q Q { Q { ) Q Y V N F b f s 8 f b _ G V V V j j F V f s s f s b ",
"j V F G Y G w j L Y G L Q G F s 8 u u w f f f * - V V j s b Q Q L Y L F Y L F V F j f s f 8 f s w Y Y N s u j u f f f s j f j f ",
"O.:.o.L L Y G N 8 L L Y Q G b u w u w s j u - u ) ,.&._ _ b s V G L G G F L G b f u s u u u s s - G L N s 8 s w s u j N f f j G ",
"O.&.O.G G V G V j 8 G ) L V f 5 w s j u * w Y &.&._ o.) { ) V u F G G L G Y b f u w s 8 w u f - * s L b s w u u s u j s j o.{ _ ",
"{ { Q G V F G s u f 5 N Q F b u f j - - b _ &.&.&.) _ Y _ _ Y b 5 N L L L G s s j w u u s f w _ Q u s f u 8 s w w 1 u Y &.o._ _ ",
"_ ) V L Y N f s s f j 5 w u u 1 @ @ V _ { { o._ o._ { ) { ) Q F s 8 u F _ G f u w s u u b 5 O.O.) _ 5 s f s w 5 s G O.{ o.o.&.o.",
"Q Y V G G V u s 5 w s s @ j L ) w j &._ ) Y ) { o.{ o.:.{ L L N u f s 1 j L j w s f N b u Q <.:._ ) F @ 5 - u L o.{ _ { ) ) { { ",
"G G L L F j u f u 8 u 5 8 { ) ) N V O.{ _ Y ) O.{ O.{ { O.L L G N j N f 5 V b s j j f N o.o.O.) Q Q F @ G o.O.&.{ { _ ) ) ) Y Y ",
"G F Y G F N w u u u f 5 Q ) Q Y V N { { ) ) Q ) { Q L _ o._ Q Q G V f s 8 1 u s f j ) O._ o.o.o.) ) G 8 _ _ :.o.) _ o._ ) Y G L ",
"L V G G G b w w u f 8 s { Y L F u V { O.o._ Y Q o.{ _ _ Q { Y G F j f b 1 - w f L O.O.&.{ O.O.o.{ Q G u &.&.{ { ) Y Q Q G F L L ",
"L G F F F N u s s s @ N Q G b u w N { _ _ ) ) Q Q o.{ Y G Y G j s j f f 5 Q { ) ) { { o._ :.,.O.Q G F u G &._ _ L Y Q F G L L G ",
"G L Y F N f u s s - @ N L b s u f f _ _ { _ Y Y ) o.Q F F F j j w w b w Y o.{ _ _ ) _ ) { { :.{ Y Y N s 1 Q Y L G F G V G G L V ",
"j N V N s u u f - 5 F b f j b u 8 - _ _ _ _ ) L Q Q L G V b j s u 8 j f :._ _ _ _ _ { _ { { ) ) ) G j s 8 N _ ) Y G L L G V G V ",
"s u s w 8 w u - 8 Q o.o._ { _ _ Q b f _ _ ) ) L L L G F V b s w w u s s :.o.o._ ) { Q ) ) Y G L N N u s s j ) L G F V F V N V j ",
"w u w u s j - w _ { O._ _ { o.Q Y L j f L _ Q G V N V G V f s u u s s @ o.o._ _ Y L L L Q L b F j s w u w s Y F Y G G F F j u u ",
"w u u f b 5 u ) o._ O.o.O.{ O.) Q Y N b 8 s N N N V G F b f s u s b 1   b ) G L G F G G N b f u s u s w 5 s L L G Y Y L V N u s ",
"u w u s - j { o.{ _ o.o.) ) o.) _ L b b b s * 8 f G L G F j s s w - w j s w N Y L V V f u u f u u f f s @ @ N G F G G F G F s s ",
"w j 8 1 Y &.o.o.{ o.) o.) _ &.{ G G G s w u u N F 8 s V F F s 1 s Y { { o.L b u b F V j f u u u 5 5 s u f b f u j G Y L L N s w ",
"f * w _ o.o._ { O.o._ _ _ ,.:.) G b u w u 8 j u ) Q b f w 8 w Q { Q _ o.o.L F b w - u f s s 1 - b L Q _ ) _ o.Y j w f V G F f s ",
"5 F { ) Y O.{ { _ _ { _ { o.{ F V F b s u u f j f Q V s 1 V ) Q ) _ o.{ o.) F F b 8 O._ L V u L O.o.) Q Q { _ Y V V f j f 5 u s ",
"G _ Q Q ) { _ o._ o.o.{ ) Q Q Y V V j s s f j b 1 V f 8 L ) ) Y _ O.O.{ _ ) L G G u { L N u j ) _ { _ Q { _ ) Y Q V F V Q b * - ",
") _ { { { { _ o.o.o.O.&.Q Y G L G L V j j u j s 8 w w _ ) ) { _ o.o.&.{ Y Y Y F G j F Q b s ) { Q { o.{ ) _ _ Y Q L F u b b 1 w ",
"Q _ &.&.o.o._ O.O.O.{ O.o.Y L Y G Y F j f s V j u @ L _ o.{ O._ o.{ { L Q L Q Y L F j Y s G { { _ _ _ { ) ) L L F L F j w f w f ",
"o.O.&.O.o.O.o.{ _ _ _ ) Y L L Q G V F b f f j f w 5 Q { O.{ O.o.o.&.Q F Q L L ) Y F s Q s _ ) _ o.o.{ { Q _ Q L G Y F F b s w V ",
"o.O.&.o._ Q Y Y Y L F Y Y L L V f w s u u s s s - j { { O._ &.o.o._ L F V Q ) L N f u b s o.Q ) ) o.o.o.) Q ) _ ) { F V j f f N ",
"_ _ ) O.O.Q G G L V V G L G V u u s u u j j j s - Q o.) _ _ ) { Y L V F F G Y V s u N @ 5 { { _ L Y { o._ { ) ) _ L L F w f b f ",
"F L Q o.{ Q Y F N V G G L F f f f f f s f f f u 1 { { o.{ { _ { Q L G G N b j s u u f u - Q Q o.Q Q _ { { _ Y G Y Q Q V s u b u ",
"u Y ) G F F F F F V N G V F j j f u f w s f s 1 F o.o.{ Q { { Q L L Q F G b w s f f f s 1 Q ) Q Q ) O._ ) G F G F F Y G s j j j ",
"u w L F F F Y V N N G Y L G V s u u j j u s s * _ O.{ { _ ) Y F G L Q V N s j f u s u b 8 ) _ ) Q ) { ) Q G F L F G G V w s f f ",
"f X u L G G G G N V Y V N s j f u w s f j s - j { _ ) _ _ Y F F G L Q Y N j j s s u w j w _ o.Q ) { ) Y Q V F F G L V j w u u s ",
"j b j 8 F G F L Q G G s u u s s u u u s f 1 1 L L ) Q Q L V F N V G F V j j s w w w s j s F O.{ _ _ ) Q F N N N V L j f u w u s ",
"s Q G N 5 f G G L Y G j f 8 w b f s b u - X 8 Q L ) _ L F V V F G G b j f u w u u 8 w s f f { ) _ _ _ L V j j b j j j s s u u j ",
"f o.L V f 1 8 u j N V j b N j b b b 1 f Y u b { Q Q ) L G G F F N f w u u s s w w u u s f s { { o._ Q G N b u u w u u u s 8 s f ",
"Y _ L N s u 1 s 8 * * 1 w 8 8 1 @ @ V { Q f j Q L Y Y L G Y G b j u u s f j w 5 8 u f j u s o.o._ ) Y F V N f 8 w w u 8 w s 5 8 ",
"Q ) Y b f s w _ Y V N b s b G F N 1 V ) G f 8 ) Y Q Y ) V Y Q F f s f j s w w s 8 f j b j N L &.Q F V N b b 8 1 5 8 w s f 8 f Y ",
"Q L L b w s 8 Q Q G L _ _ _ o.) Y V u V G s 1 Q ) _ { _ V G L V f j f j s w w w w u j u Y N j { Y F b j b j u 8 w w u s 5 Y Q Y ",
"G Q F b f w j { ) Q Q o.o.&.O.Q Y G G s b b s Q L Q ) _ G F L F N N f j f w f f u u u j Y V w Y G L b F G N u 5 w s u @ j ) Q L ",
"N b f N b 5 Q _ Q ) _ o.O.o.{ Y L Y V F u 1 5 L G L ) Q F V G F f j s u s u j u 8 j 8 L F u w G N F G V V j j w w 1 * * 1 j Y L ",
"b f j b f F { _ _ _ { _ ) o.{ Q L L G F V f 8 b Y L F L Y Y F N b j f f u u b s b f j G j s f b F G G G N s 5 5 j F N N s 5 u F "
};
