/* XPM */
static char *_cd9230b4d4e42aab224a1c3c538105fLuY7LZWa3lQ8sSNl[] = {
/* columns rows colors chars-per-pixel */
"64 64 169 2 ",
"   c #2D2E20",
".  c #323323",
"X  c #37382A",
"o  c #3B392C",
"O  c #3F3F32",
"+  c #434334",
"@  c #464638",
"#  c #49473A",
"$  c #474838",
"%  c #4C4C3C",
"&  c #53513F",
"*  c #4E4E41",
"=  c #514F42",
"-  c #4E5043",
";  c #545344",
":  c #595645",
">  c #5B5946",
",  c #555649",
"<  c #595749",
"1  c #57584B",
"2  c #5C5B4C",
"3  c #5E5E51",
"4  c #615E4D",
"5  c #615F51",
"6  c #5F6053",
"7  c #5F6058",
"8  c #63604E",
"9  c #636254",
"0  c #696555",
"q  c #6D6956",
"w  c #64655A",
"e  c #696759",
"r  c #66695D",
"t  c #6C6A5C",
"y  c #706956",
"u  c #726D5C",
"i  c #73705E",
"p  c #78715F",
"a  c #676860",
"s  c #6C6D62",
"d  c #716E62",
"f  c #6E7065",
"g  c #6F7068",
"h  c #737265",
"j  c #7A7565",
"k  c #7D7866",
"l  c #74756A",
"z  c #79776A",
"x  c #77796D",
"c  c #7A7A6D",
"v  c #777870",
"b  c #7C7D72",
"n  c #817D6D",
"m  c #817E71",
"M  c #7E8175",
"N  c #7E8178",
"B  c #82806E",
"V  c #828276",
"C  c #888677",
"Z  c #84857A",
"A  c #89867B",
"S  c #86887D",
"D  c #8A8A7E",
"F  c #918E7D",
"G  c #94917E",
"H  c #878880",
"J  c #8C8D82",
"K  c #918F82",
"L  c #8E9085",
"P  c #8F9188",
"I  c #919286",
"U  c #989687",
"Y  c #94958A",
"T  c #989689",
"R  c #97998D",
"E  c #999A8E",
"W  c #979890",
"Q  c #9B9D92",
"!  c #A19E92",
"~  c #9EA095",
"^  c #9FA098",
"/  c #A1A08E",
"(  c #A1A296",
")  c #A9A896",
"_  c #A3A59A",
"`  c #A8A69A",
"'  c #A7A99D",
"]  c #AAAA9E",
"[  c #A7A8A0",
"{  c #ADAEA5",
"}  c #ACADA2",
"|  c #AEAFA9",
" . c #B0AEA2",
".. c #B0AFAA",
"X. c #AFB1A6",
"o. c #AEB0A5",
"O. c #AFB0A8",
"+. c #AFB0A8",
"@. c #B1B1A5",
"#. c #B0B2A7",
"$. c #B1B2A6",
"%. c #B0B1A9",
"&. c #B3B5AA",
"*. c #B5B5A9",
"=. c #B7B5A8",
"-. c #B5B5AD",
";. c #B5B7AC",
":. c #B7B7AD",
">. c #B4B4AB",
",. c #B8B6AA",
"<. c #B6B8AD",
"1. c #B9B9AD",
"2. c #B8BAAF",
"3. c #B9B9AD",
"4. c #B7B8B0",
"5. c #B7B8B0",
"6. c #BBBBB1",
"7. c #B9BAB2",
"8. c #BBBDB1",
"9. c #BCBCB2",
"0. c #BBBCB4",
"q. c #BCBDB5",
"w. c #BEBFB7",
"e. c #BEBEB4",
"r. c #BBBCB3",
"t. c #BDBEB8",
"y. c #C2BFB5",
"u. c #BFC1B4",
"i. c #BFC1B6",
"p. c #BFC0B8",
"a. c #C2C2B6",
"s. c #C0C1B6",
"d. c #C4C2B6",
"f. c #C1C1B6",
"g. c #C2C3BB",
"h. c #C6C6BA",
"j. c #C4C4BC",
"k. c #C9C7BA",
"l. c #C7C9BE",
"z. c #CCCDBF",
"x. c #C9CABE",
"c. c #C6C6C1",
"v. c #C7C8C2",
"b. c #C7C8C0",
"n. c #C9CAC2",
"m. c #CBCDC2",
"M. c #CDCDC3",
"N. c #CCCDC5",
"B. c #CCCDC7",
"V. c #CBCCC3",
"C. c #CECEC9",
"Z. c #D0CFCA",
"A. c #CFD1C6",
"S. c #CFD1C5",
"D. c #CFD0C9",
"F. c #D0D0C6",
"G. c #D3D5CA",
"H. c #D5D5C9",
"J. c #D6D6CA",
"K. c #D4D4CC",
"L. c #D8D8CE",
"P. c #D6D6D1",
"I. c #D8D8D0",
"U. c #DCDCD5",
"Y. c #DEDFD9",
"T. c #E1E2DB",
"R. c #E8EADF",
"E. c #EBECE6",
"W. c #EFF0EB",
/* pixels */
"I J S M M M x b K E z 9 z A R ^ D 3 x U L Y R D I Q Y R R _ ~ Q Y I Y L R Y N Y Q ^ _ ' } 8.~ t ; D f.f.o.,.f.c h U K.n.q.5.o.Q ",
"J V x c x l s Z _ A ; U J.h.;.] R M ; x } Y Q ~ J Q R R Y ~ R R R I Y Y D N M N L W _ } -.i.H.x 4 8 U 3.] Y q h c U L.B.g.-.{ Y ",
"b l f f g v m Q U 8 B h.@.( ( _ R E E , M #.' ^ ~ ~ P ~ ~ R F S N D Y N M M M M b Y ^ o.8.g.E.L 4 p 8 : % O > k u U 2.%.i.5._ L ",
"b h f f h Z ( K 2 % e L L Q J V R ] *.5 % f ] ' ^ ~ H R R L S D D G G N M M M M Z J ~ ^ +.m.S.t & u D E ] ] / i ; u ;.{ n.8._ H ",
"M h l a A ` D = $ V ^ +._ &.8.^ x 1 6 M V > r ] u.| [ | ' _ ] ] ~ ~ S S M M M M Y ' ' ;.u.' 0 5 4 h o.G.u._ ( c % : V B.B._ W H ",
"Y N V A E l % % R ^ I L J E ( o.&.;.3.a.z.} t f ^ 5.-.5.] ^ ~ ~ ' ~ I M M M L L ] u.r.E f 6 6 P ,.( 6 r l 6 1 6 k V 2 Q G.} Q R ",
"] ( E E u = < W R L S Z L ~ Q Q ~ ' ' ' #.z.&.h r / u.o._ _ Q Q ~ ] ' S S D ~ o.o.U i 9 9 M Y X.} ' L L P D Y Y ] r.@.h Z 7.&.} ",
"_ R D 0 % 3 ` R D J N M b P Q ~ Y L L I ~ ' u.u.x 9 D i.' ^ E ~ ~ ~ ) ~ ] u.' M c 9 9 8 x _ ' ' ] ] S M c N M M P Q E Q Z l [ 8.",
"p > > % 9 ] ^ R R P M S x M D S M M D S S E } u.( 5 @ j @.;.@.%.u.' ' D V u > > 8 : e L ^ ' ^ ' ' E Z D x M P Y R Y J D | [ s J ",
"8 4 & : &.} ^ R R I S S x S M c M M M M U E E ' ] E 4 2 2 K ( E M t 6 > 2 q 0 u > F o.( ' ^ ~ ~ Y P R P C Z P L J Z H J ( 5. .b ",
"B 8 ; D 3.o.' I Z c Z S l M l Z Z f M x M M U I Y ] C e 8 ; % 2 w e t f z h 8 q h S.' ' [ [ [ ^ R R L S L N x Z H P H A I ' ] ( ",
") 0 > E ( _ ~ D L M N Z x x c Z C x V M M M F L I ( E 4 > k ( T C F R / ,.@.2 8 x G.A.5.-.' R L Y J L P P M N Z Y J Z b H Q [ [ ",
"/ 4 5 Q ~ ' P L H b M b M M M Z Z x N l l l c S I ~ ] t 2 x.h.} ~ / E L Y E i - 9 f.i.I L Y P L L L R Y E Z S L Z b M Z Y ( | | ",
"U ; w ! R Y L L M M M f c x N N x s M f s f S I L ( o.t h f.' E R E D r f Z L % ; ( 3.L S Y H N J R [ [ _ R L H J S M Y W W ^ [ ",
"E < b ( Y H H M x x v v x x b f l l x w w M D D S R o.5 s ] ( I D M M M D S Q > % k f.' W Y J Z P ' X.u.;.[ R J I P J H J R W W ",
"T % D } ^ J N b N v H v l x g x N f s s r M C M M U _ - h ( I J L S D S S L ~ x & 8 o.&.Q ~ H Y 0.c.0.5.+.Q W Z S J Z H Z H Y W ",
"I % L +.' P S M x N D M a f s x x 7 6 a l x x N J E J % h Q U Y L Y N M J S E L : 5 D ;.W W W +.B.p.X.Q P R P N N x v N N v L R ",
"c @ P +.W H J v M M Z x a g s f M l l 7 6 l s M S E A $ t _ ~ J L M H N M S Y I ; ; ; } ^ ^ [ 5.0.[ ^ H N S J N M a l N N N H Q ",
"9 $ S +.P Z Z N M M v l f a r r f l r 7 a f f N J ( I : x ` ` L S P M M M N Y ~ 4 & + H &.} 5.7.} W P H N M x f r 7 M M Z J L _ ",
": & Z } J L Y N N M l M f r 7 r f f f f g a l H S ) E 2 Q } %.^ R R M M M l N U t ; O r 8.i.c.7.^ W P b N M l r r r l N M Y } R ",
"> : b -.Y P H N J N b v f r a w f f l l l r g N I } k > o.&.o.' Y M M M M l M Y t > $ 9 u.g.v.i.+.W H J ~ N x s s b H H ^ 3.f.t ",
"4 4 e  .Y P H H J H H b f s f s f f f f l r s N ( D : 4 3.' ~ ~ N S M M x M f L 5 4 & & ~ S.p.g.p.+.[ ' ^ R J M v J Q ..&.J ; , ",
"0 % = E ^ P W Y N Z J J x f g g 6 r r r 7 f N ~ R & q 9 ;.` ^ ~ ~ Y M M f l f F k 2 2 & 8 L ' <.+.8.0.&.o.^ ^ ^ Q { ' Z 5 9 V c ",
"E V o w [ Q _ P P L Z Z S v s w r f r r M N E ~ 9 9 h 0 Y ' ~ ~ L N N M l f s D o.; 4 E ' ~ M r N P ^ n.n.i.l.;.^ l * w J ( T K ",
"D ' 2 # l >.[ Q Y J J S L Z h l M M M M L ~ ^ 1 6 t i t h ( ~ ' I D M M s s r M ] % L i.;.#.^ R M M ; : t q 0 2 1 s Z E S M c x ",
"Z I ^ O e C >.! Q E ( _ R L Z L N M H R ^ Y - w M M M i 5 ~ X.( R S f w 6 6 6 M ( 1 } o.Y J N W ' #.] x % 4 8 + I ] J Z x b M M ",
"Z R { * 4 q C _ ] _ ( } ^ Y Y J I R ' ~ f % f S Y ~ D 2 0 h } R D M M M f f l Y / 1 ~ ] W H P ~ D C F ~ 2 $ $ < @.J L S S N Z N ",
"J _ { 2 4 4 ; < D ;._ ^ ' [ ] @.o.~ M 6 % M ~ ~ J S R l e 9 I ' P P N M M M S ^ M 3 ' u.[ W L P M M M Q L . X U E J Z N b M M S ",
"L _ / > 2 m J 3 O t ! @.;.] I b 8 1 > + f } Y S N M J ~ - , Z ) R R D N M M D } t % M o.} ~ L D M M M M E + : } ~ Y S H Z Z J H ",
"L _ h ; Z ( Q ` I - 5 e 9 6 ; % & 8 2 f u.~ N M x x f N @ O t Y ~ Q N M S L R u.> F ] M ~ ' R R M h M I U 2 0 =.} ^ Y S J L W I ",
"L A ; V R b l D o.- 9 9 Z Y Q [ } r t ] ~ J N M x l 7 M f   3 V u.~ U M J I &.Y $ ) o.x s } ~ _ D S ~ G 0 e q ] 8.;.' Y W ^ Q P ",
"D < t R b a w a L 2 * @.x.` J D / F 3 U R S F L M 7 7 x H - $ t ~ u.~ I } &.i.6 $ E / / M S } I L F M 6 t q u U l.5.o.' } ' Y Y ",
"6 1 L J x a w 9 A A 2 ] Q J H x b ( 5 j ~ J S S M s 6 6 M S 4 t i B f 4 t t > & > G ) G B B $.( B 9 9 4 l V & s o.z.i.0.8.} Q ' ",
"1 J J v a 7 7 7 d I 2 K I Z x s r ) M 4 ' E P M f r 6 3 x ~ i 2 0 8 2 > 4 8 8 q > : ; ; > > h c q 0 q l U ( G 3 c u.J.h.W Q r.x ",
"N Q x f r 7 7 w b J = K Y b l f s I I ; Z o.~ Y h s M e M ] e % t 3 % ; & 2 6 w h M I L x 9 $ : q c } W I L } J : < l h V V < 2 ",
"^ H x l r 7 w r Z b # Y ( P N v s R I ; w ] E D M M C S ] h % > U ~ U F S F ~ ~ ( ] 1.&.;.u.) 0 ; $.q.E M Z Y o.L ; e _ =.D ; V ",
"^ Y S M t w 9 g K x + Y Q H x a g 8.Z : 3 _ E S M S S E i % & i ~ o.' R Q / ~ R R E ) ` ) ;.x.Q ; A K.T Z Z U ` d.T 5 5 8 : d $.",
"' W J v d s s v T h 0 _ ' W b s ^ ' E j > S ' I G L M 2 + 8 5 Z ' L Y L L D Y R I E Y Q Q [ j.W t d l._ M J L I _ 6.} 5 y q E 9.",
"~ ~ N M a l v K [ 0 t ] ;._ W P ' l c 0 8 4 k M q & $ & q 0 5 ) ~ L F F F M N F I I L I Q ' l.-.l q ( -.Z b S A Y Q n.! 4 0 ! >.",
"o.o.Z Z v v D ..F = u m &.J Z J Z : 2 ; 2 2 > > 4 & 8 8 q 8 : ~ ~ N L I L Z S D Z M Z Z S ^ g.v.z 5 h y.E Z Z S Y J ' d.n 9 1.@.",
"o.Q I D c C _ C : 2 i 5 1 3 9 ; - 6 q t t t 0 r w 9 1 ; & 0 5 Q #.S L R S S S M N N F N M E j.S.U e < ~ &.E S M H Y _ } [ 2 S 8.",
"X.Q A A L _ c 2 < % 2 3 z I Q ( U ~ ] ] ] _ E L Y Q ( F % % 8 l &.D M L L L L S S G N M M L u.m.) h e i u.P Z Z H H Y ^ &.f 9 E ",
"o.1.] ] K q : ; 9 R 8.[ ] o.' [ E P I A D F D Z C U U R V $ 8 f ' ~ M M F F S M M C D M c D 5.S.7.z j > U ~ D S N b R W ~ D 9 w ",
"V 3.1.c < < 3 m 5.i.-.+.-.} _ Q Y D Z f x c N j M M Z A ( 2 : M F o.M M L G S M M S S S M P -.n.x.V k q f <.D M b b Z Z I ] x e ",
"0 u 0 9 z D ` -.+.+.p.l.v.+.^ ^ E F Z M x N Z c l l Z I ( C < j S u.U D R L L D B S D M S E <.l.h.V p p 9 ) ( N M f l Z Y ~ I e ",
"0 9 k C [ r.3.%.| ;.c.B.p.} ^ W ~ _ R P D D V x f S E E R _ l h N ' } R I Q R S C S M M / o.u.l.=.z u p i M 3.D l i M S N L ;.l ",
": i J o.r.o.] +.0.0.v.B.v.;.^ Q E ' ~ S S L M B x F ~ R L _ } c M R u.~ Q _ ~ L G Y N M Q u.h.S.U n u z 9 8 X.' g f b b N Y a.R ",
"% i U ;.( Q } i.u.5.p.v.g.p.7.&.' ~ ~ P Y P E C N C R R L _ ` t M R } #.o.u.o._ / F S ~ o.i.z.u.C U k.f.3.6 Z j.P l f M Y Y u.' ",
"$ h 1.3.' } 8.o.+.5.0.y.c.c.t.5.} ' ' Q Q Q Q U Z D T Y U &.h @.V Q %.=.j.x.f.r.~ L R &.y.k.z.K b y.d.@.&./ 6 &.=.b h P R Q 7.' ",
"% c r.f.;.8.8.} +.8.c.c.c.g.0.c.q.' _ ' _ W Y J Y D Y T ] E c o.S V @. .j.F.B.r._ [ 7.m.c.z.E z  .n.o.` ' u.D x q._ Z W P ^ 8.} ",
"; _ h.y.h.x.o.E ^ g.C.C.v.c.C.P.t.%.5.+.[ ] W J ( E ( >.r.Z V I E 0 } y.h.M.B.q.g.j.n.K.V.9.9 D P.0.^ Y _ &.;.j l 1.o.Y L Q <.' ",
"2 r.g.h.x.g.} Y o.n.n.B.C.Z.Z.C.g.5.0.7.&._ R Q } r.n.V.D d U ) B 4 F M.f.x.A.C.K.K.K.F.M.A 9 r.A.8._ Y ~ ( ] ~ s x =.Y P R u.P ",
"h z.z.d.h.{ ^ R ..t.y.v.C.B.c.t.%.{ 7.&.o.' ^ R Y S D b c V K j p p n ) F.Z.F.B.D.m.D.U.o.3 D K.p.] W P R R R 1.K 3 A } Q [ m.x ",
"h C =.3.r.1.' o.5.y.B.P.P.n.c.t.7.q.( R I h - * ; r x b K u 5 5 q y y q ! F.K.K.P.P.J. .j 5 &.J.i.o.Y L L S I ;.,.c = Q g.h.E t ",
"u 4 > 0 j L I R ! ! W ! ! Q J b h a < * < @ = 2 3 s z m e , e u d z d t q z t q z V c u 4 j K.c.;.&._ ~ I D I R 9._ d 0 n n 4 p ",
"n i u h c i 2 1 * * = * = = = % $ 2 w w h d d x d t h c z P _ 5. . .[ ] ] ( ( E D 9 : 0 9 ) Y.i.0.&.~ Y D L L R ] k.I j q 0 n n ",
";.f.2.;.;.=.} ' ! I n d j d p d e h k w a l Z ( [ o.t.g.-.p.p.p.q.y.q.7.9.f.g.r.r.r.] j 9 ] Y.v.8.o.Y c S Y J J W y.! z n n F ] ",
";.o./ E R I J R  .1.k. .j j p j t 9 e I 7.n.c.t.0.-.-.t.p.D.Y.Y.Y.C.q.g.h.-.@.o.} -.a.3.9 b Y.B.8.&.P D L J D J D r.` 9 A T z.F.",
") R C S Z M b S K I _ V.m n y = d f.i.5.q.t.0.q.q.0.c.P.T.E.W.E.P.g.t.7.&.o.o._ ` @.=.j.m 9 0.K.g.+.E ^ L S D D Q l.T s ! ,.L.y.",
"Q L Z C c x l Z H J | K.K c q = 3.F.%.&.g.j.g.c.v.D.U.P.D.v.P.P.c.t.-.[ ] o._ E Q @.7.j.L 2 v U.B.-._ _ R L V T q.Z.z m ! M.k...",
"E D C c v h b H P P { k.,.j u : 3.u.o.=.=.g.n.v.B.D.C.0.X.+.0.c.i.&.~ ~ ( R I L J T ! ..I , 1 9.K.p.[ _ I Z S ] F...0 b c.c.y...",
"E x x x b b J Y W W { F.] y n 5 ( X.E ' %.{ 8.l.m.l.-.[ ' ' 5.p.u.X.' ~ ~ R I C b R _ ..%.1 % l U.p.| [ Z b R 9.L.l e  .I.y.-.-.",
"R x Z M m Z m Y W W 1.k.y n n y e ~ ~ R Q E ] 8.8.&.} ' ~ ~ &.&.[ ^ Q I R Y R Z V E ' ^ =.W 2 , 7.g.5.-.J H ! F.E 0 D L.g.7.-.-.",
"~ L S Z b b H H P [ 1.A y y y 4 1 i ( P L J P Q ^ ' ^ Q W ' o.[ ' ~ E I R Y D M D Q _ ( [ ,.b e V g.0.| T Q 5.5.d j f.B.0.-.-.[ "
};
