/* XPM */
static char *be24f7f92a4742bf8ad4a31d6bffde7b6UldGdVkyzUu6Alo[] = {
/* columns rows colors chars-per-pixel */
"64 64 223 2 ",
"   c #6D533C",
".  c #5C5246",
"X  c #6B5C4B",
"o  c #665A49",
"O  c #715D49",
"+  c #695E55",
"@  c #645C51",
"#  c #72614B",
"$  c #7C634E",
"%  c #6D6255",
"&  c #6D655A",
"*  c #6A6357",
"=  c #746553",
"-  c #7D6B55",
";  c #73665C",
":  c #73695D",
">  c #7B6C5C",
",  c #796758",
"<  c #7F705D",
"1  c #756C62",
"2  c #7B6E63",
"3  c #767063",
"4  c #7C7266",
"5  c #7D746B",
"6  c #7D786C",
"7  c #836B54",
"8  c #826D5B",
"9  c #8C6E52",
"0  c #84715D",
"q  c #8C755E",
"w  c #93765B",
"e  c #94795D",
"r  c #9A7A5D",
"t  c #967557",
"y  c #847564",
"u  c #8A7663",
"i  c #867965",
"p  c #8B7A64",
"a  c #82766B",
"s  c #83796D",
"d  c #8B7C6B",
"f  c #8A7769",
"g  c #937C63",
"h  c #9A7E63",
"j  c #937E6B",
"k  c #907761",
"l  c #807770",
"z  c #857C72",
"x  c #8A7E73",
"c  c #897F79",
"v  c #857E78",
"b  c #907F75",
"n  c #9B8167",
"m  c #93816C",
"M  c #9B846C",
"N  c #98886E",
"B  c #868175",
"V  c #8B8175",
"C  c #878078",
"Z  c #8D847B",
"A  c #8F887D",
"S  c #948474",
"D  c #998673",
"F  c #968975",
"G  c #9C8A76",
"H  c #92867C",
"J  c #99877B",
"K  c #94897D",
"L  c #9B8B7C",
"P  c #9D907C",
"I  c #A3876C",
"U  c #A48A6E",
"Y  c #AC8B6D",
"T  c #AE8864",
"R  c #B48D6B",
"E  c #B78B67",
"W  c #B6916C",
"Q  c #B8906C",
"!  c #A38B75",
"~  c #AA8D73",
"^  c #A28E7C",
"/  c #A98F79",
"(  c #A08773",
")  c #AD9275",
"_  c #A4927D",
"`  c #AB947C",
"'  c #AA9579",
"]  c #B49474",
"[  c #BA9573",
"{  c #BE9976",
"}  c #B3967D",
"|  c #B89778",
" . c #B59A7D",
".. c #BA9A7C",
"X. c #C0926E",
"o. c #C39D7A",
"O. c #C19572",
"+. c #C1A07F",
"@. c #8E8581",
"#. c #8F8982",
"$. c #908781",
"%. c #948B83",
"&. c #9A8E83",
"*. c #968D89",
"=. c #998F8A",
"-. c #969185",
";. c #9C9185",
":. c #969189",
">. c #9C938B",
",. c #9E998D",
"<. c #9D9591",
"1. c #9E9992",
"2. c #A08F82",
"3. c #A49484",
"4. c #A99583",
"5. c #AD9A84",
"6. c #A3968A",
"7. c #AA9788",
"8. c #A3998D",
"9. c #AB9C8C",
"0. c #A69884",
"q. c #B19781",
"w. c #B39C83",
"e. c #BA9E83",
"r. c #B29E8B",
"t. c #A19792",
"y. c #A49B93",
"u. c #AA9E93",
"i. c #A59D9A",
"p. c #A89E9A",
"a. c #B09F93",
"s. c #ADA18E",
"d. c #B6A186",
"f. c #BCA386",
"g. c #B4A28C",
"h. c #BBA48C",
"j. c #A6A096",
"k. c #ACA295",
"l. c #A6A19A",
"z. c #ABA39C",
"x. c #AFA99D",
"c. c #B3A494",
"v. c #B9A695",
"b. c #B5A896",
"n. c #BBAA95",
"m. c #B2A69B",
"M. c #BAA699",
"N. c #B4AA9D",
"B. c #BBAB9B",
"V. c #BDB19F",
"C. c #A89FA0",
"Z. c #ACA4A2",
"A. c #AEA8A3",
"S. c #A6A0A2",
"D. c #B1A6A4",
"F. c #B4ABA3",
"G. c #BAAEA3",
"H. c #B4ADAA",
"J. c #B9AEAC",
"K. c #B1A7A8",
"L. c #B6B1A3",
"P. c #BCB1A4",
"I. c #B6B1AB",
"U. c #BBB3AB",
"Y. c #BDB9AE",
"T. c #BDB5B2",
"R. c #BEB9B3",
"E. c #BFBBB8",
"W. c #C19F83",
"Q. c #C3A384",
"!. c #C3A68B",
"~. c #C3A98D",
"^. c #CAAB8C",
"/. c #CCA685",
"(. c #D0AD8D",
"). c #C3AC94",
"_. c #C2AE9B",
"`. c #C6AA92",
"'. c #C3B19E",
"]. c #CAB49C",
"[. c #C9B196",
"{. c #D7B996",
"}. c #C1AFA2",
"|. c #C4B4A3",
" X c #C9B6A4",
".X c #C5B8A6",
"XX c #CCBAA5",
"oX c #C1B6AB",
"OX c #C4BAAD",
"+X c #CBBBAC",
"@X c #CAB7A8",
"#X c #D0BFAD",
"$X c #D2BCA3",
"%X c #C0B6B2",
"&X c #C4BCB3",
"*X c #CABEB2",
"=X c #C4BCBA",
"-X c #C5BABB",
";X c #CDC1AF",
":X c #D2C1AE",
">X c #D9C3AB",
",X c #CBC2B4",
"<X c #C6C1BB",
"1X c #CBC4BB",
"2X c #C6C1B6",
"3X c #D3C3B3",
"4X c #D3C6BA",
"5X c #D4CABC",
"6X c #DBCCBC",
"7X c #D3CAB7",
"8X c #DFD0BD",
"9X c #CBC5C1",
"0X c #CEC9C3",
"qX c #CFCBC8",
"wX c #D3CBC2",
"eX c #D9CEC3",
"rX c #D3CDCA",
"tX c #D0C6C5",
"yX c #DDD2C4",
"uX c #DDD5CA",
"iX c #DDD9CD",
"pX c #E2D3C5",
"aX c #E0D7CE",
/* pixels */
"` f.{.{.{.' _ j.Y.I.1.*.$.z $.%.x 6 l j.Y.c.c.m.u.6.s >.i.t.Z.p.,.Z %.y.#.F.-.1.l.N.D.y.v :.m.OX4XN.r.c.[.]. X'.'.'.V.8.L 9..XL ",
"' >X[.{.f.N ;.x.z.%.y.>.%.%.1 1Xz.#.%.Z l %.N.k.3.5 6.;.%.%.p.i.Z %.y.A >.wX>.,.A.z.U.U.I.i.s y.yX1Xc.c.V.'.]. X X'..XS c.8X6X3.",
",.m :X).P ;.-.A.Y.Z.%.H.D.A.v *.H.H.A.z.t.Z s C y.&XOXH =.t.>.,.%.i.%.-.l.C A.L.z.L.D.F.U.I.%.8.A K ,XOXB.n.'.].:Xn.G g.G i g M ",
"I.j.s .X6X,.#.:.<.l.y.1.y.Z.*.*.I.A.p.C.I.H.F.>.5 V .X5 Z &.%.%.:.:.-.l.#.%.5 %.&XF.I.l.K.k.H F.z.>.z K k.;X'.V.n.G b.0 G d.d.` ",
"J.Y.k.s &Xy.:.1.$.<.i.>.$.*.1 l.E.A.x.U.<XE.J.J.z.1 >.z s K ;.-.%.x p.$.:.,.p.Z c J.Y.oXz.H :.l.T.A.z.i.t.V Y..XP.6Xs.$ ! ].B.b.",
"J.J.T.C j.#.#.z.A.p.t.*.#.$.1 >.1X<XY.<X1XI.1.%.Z :.4X*Xa s H %.4 y.$.>.,.:.=.*.,.l D.U.%.>.Z Y.A.A.A.Y.OXN.K ;XP k.+X> F g.|.B.",
"U.J.J.>.K ,.A 1.T.p.%.%.>.H & 1.wXOXU.&Xi.Z 6.>.L J f u.c.;.V a %.:.@.#.Z #.*.%.u.%.1 ,.wX,.>.x.I.I.A.z.F.j.-.;.,.B V N.d L b.F.",
"J.K.J.l.z y.s A t.y.%.%.%.4 ;.m.S G.Y.,.&.3.&.m.G._.7.m f F &.OXL.x $.Z c V #.#.,.;.t.z t.&.t.F.I.H.A.l.H.%.j.j.,.j.Z Z L.s L j.",
"D.H.H.I.a D.z ; $.H x s ; '.w.} ~ q 7.5X+X7.M.M.v.B.).n.c.B.L K k.c s 4 5 1 6 v $.Z c u.5 %.8.l.z.z.z.t.@.t.$.Z.l.1.z.6 A.%X4 K ",
"I.L.F.D.z G.oX2 ; 2 f . g.' ] o./.^.q y |.B.B.B.c.M.M.v.[.n.B.d .X5 2 1 3 1 5 z Z %.c V 5 F.Z p.p.z.t.>.t.=.<.C.z.S.A.#.Z aXU.V ",
"U.OXK.m.z m.y.&.2.x ; b d.Y Q.+./.(.f.D X .XM.B._.M.v.c._.n.c.d yXx.1 1 : 3 4 4 s V 2 : j.B.u.z.F.j.OX1.*.J.i.K.S.Z.F.*.%.wXj.8.",
"I.L.k.m.l %.u.H z t.u.8XN Y [ E o.o. .D x 6.*XB..XB.v.B.|._.L k.;.>.u.1 4 s z 4 : ; a 3.S L J x V 5X*X5 K.0XK.K.I.I.I.@.t.-.A H ",
"m.y.6.;.K k.p.m.9.8.s s.g.n | { { ) ` 3.a.2 +Xm.|.G.a.}.}.L 8.6.j.B Y.;.A B c z z 4 ;.P b.|.}.9.6 H z.5 %XwXT.H.K.A.$.t.>.y.%.*.",
"9.8.3.7.6XF.u.m.m.V.x.i g.h.I Y { ~ ! r.m.S x .XG.M.c.B.k.L >.k.x.#.z.x.C A Z Z : ,.L ;.9.B.v.u.&.l K.5 K.rX-XJ.T.*.>.=.p.<.<.=.",
"L 7.5._ S .Xk.m.N.P.9.P.L F ].' ) ' L M.9.6.2 .XG..XoXG.V ;.j.L.x.x.-.U.s c H 1 B L -.%.0.c.M.k.t.l oXl y.-X%XD.D.%.t.p.i.t.<.$.",
"a.v.g.$XS m.k.Y.m.c.'.V.B.9.m g._ ! G 9.d V G.wXU.G.G.&.H.H F.H.F.U.A N.6.c V 2 K -.;.L L 9.c.u.j.Z N.%.H K.J.t.c >.c i.C.t.@.@.",
"&.2.L s.L 8.N.L.N.N.B.c.M.+X'.p |.L L ;.K -.:.B %.y.j.L.wX%.l.A.l.L.N.;.6X9.L ;X;.L L S L 9.c.9.8.c L.*X5 Z *.x <.x v c Z *.z $.",
"u.;.L L L ;.OXz.OXB.V.c.M.|.;X3.5.,Xs ,.L.L.L.x.>.A K C A u.u.H.H.Y.;.;.m m i G 8.z A F P 3.9.F H >.>.z.%X<.$.D.z C $.#.$.%.z c ",
"z.;.6.Z K 6.N.N.N.P.N.a.N.B.|.V.S L Z T.9XT.H.A.A.H.H.I.3 OX1.j.A.y.L 5.f.w.d.0 c.d V B Z V >.j.>.:.p.l 5 <.aXl.#.#.<.*.C V a 4 ",
"8.;.;.L ,.;.N.N.z.c.M.N.|.|.'.b.V >.i.H.=XH.S.S.A.I.%XI.z 1X&X;.8.P c.} h. . .n F ;X;.;.,.,.p.D.K.>.i.z.x.a &.z.1.*.#.$.A s 6 i ",
"8.;.P V ;.P k.x.z.N.N..XP..X|.;.=.6.Z.K.E.Z.C.K.D.A.J.l.:.z.d a i L _.} f. .' N = eXL.j.I.Y.H.I.U.t.i.m.F.,.: l.%.A v V B z 8.x.",
"6.V F s.P V.F j.8.i.k.m.F.u.8.P.&X>.Z.C.E.C.*.<.p.J.F.:.8.V S J S L g.h.d.' '  .= N.0X<X9XE.E.I.I.y.i.A.m.%.& 1X,.L K &.F.5XOXH ",
"G _ d.h.N 7X,.B 5 5 &.eXI.&.%.1 8.-.i.Z.t.<.<.C.J.m.u.;.K L S J S S G v.w./ ) M > 9.1X0XqX0XqX<XI.,.l.x.z.z c ,XP 3.5.L S OXY.;.",
"0.h.5.m b.V : 3 x %.+ z.z.k.z.%.& Y.t.K.J.K.=.i.p.u.*XZ 6.&.L 6.G ^ G _ N m M ( 8 9.1X1X0XqXqXwX=X>.,.8.H >.yXM.n.s.` 5.3.> ;XN.",
"k.9.7.+XG.z Z &.H $.s V A.y.i.Z.V l %XH.N.;.L 9.3.3.S k.8.;.K K L D L M M U w.` 0 9.5X*X1X<X<XU.k.,.;.P P H s.P.c.g./ ( 2.d 0 +X",
"F x d K u.H %.H V Z l z A.1.1.i.Z.c 1 k.,XP 9.c.|.B.f V.s Z H S J J d d j M / ' u d G.a A.A.,.x.s.P 0.b.V.B.d B.9.g.4.4.^ 4., D ",
"6.3.8.2 ;.;.H H c Z c l F.z.K.S.K.C.t.1 N.c._.|.n.'.L 9.Z : x &.;.L f p 0 7 k ! u m : ; * L.7XF P 0.s.g.s.b.9.m XXr.h._ r.5.! - ",
"2.L 3.0 6.%.Z H Z %.V x A.l.p.i.t.t.i.2 u.c.|._.'.|.g.L 4XJ.m.t.&.H 6.c.M q 7 u - L 2 >.:.1 OXk.g.s.s.s.g.s.V.f :Xg.5.4.4._ ~ k ",
"3.&.&.2 8.H Z Z V Z Z C R.:.1.1.Z.C.t.> 6.B._.|.n.B.4.3.s Z <.>.H ;.1 : M.7.L - > 6.c p.C.#.K |.s.s.5.b.9.N.c.d B.6X7.S G S M u ",
"6.6.L s u.&.&.H #.%.$.z iXL.l.H.l.t.=.+ u..XB.|.B.'.3.;.V t.p.*.*.i.8.z d +XL 9.6X>.Z i.i.z.1 P.s.' 3.3.3.7.7.y  X:X_.w.q.4.! ( ",
"3.;.d x 8.&.>.=.H %.s y.k.L.U.8.-.H 1 a +X+X@Xn.n.@Xb 6.s $.*.*.*.j.,.z Z c.d > +Xu.z ,.Z.Z.V %.b.4.5.5.7.7.9.j w.w w t t n w w.",
"H S s x m.&.=.6.%.V u.8.;.p d m.F.4 1 N.m.L S S 9.B.L 8.l @.@.@.#.1.%.; P.8.0.d H k.z :.i.Z.z.6 P.8.3.8.5.9.L _ n !.] W W {  .n ",
"3.K % m.*X%.6.,.a m.3.7.g.5.0.i 3.6X|.*X3X@XN.3.d 7.pXH z %.*.*.:.-.3 -.x.s.k.;.s u.5 :.z.1.C.<.1 oXu.3._ D 7.$X~ ^.[ T E +.{ I ",
"H 4 F +X@X|.;.s N.8.k.g.r.0.g.0., @Xm.G.@X#X#XM.|.d }.L a $.$.%.A -.* k.b.b.s.;.a 6.x %.Z.1.<.A.$.H pX+X7._ 3X>X .{ W E W +.) ) ",
"f y h.j - 0 P .X6XB.c.g.g.w.d.d.p n.a._.@XM.M.v.M.n.j m.+ f z c 5 : : L.N.V.c.P d =.Z <.Z.p.C.H.j.Z B.3.3.g.d ].Q.o.o.{ { ..7 f.",
", v.M / m m p > a s.@XB.9.d.h.h.N _ M.}.}.@X}.r.s.|.b M.S ; x z z -.1XN.N..XP.K a =.z <.S.H.K.J.H ,.5.n.n.XXr.' w.] Q.W.Y r w.].",
"g.G h M D F L S > # > V.XXv.d.g._ G V.b.B.@X X_. X Xc.D eXu.&.&.&.U.yX.Xs.k.3.i 4 &.l y.Z.J.K.H.V 8.g.).n.).[.m $X! M I  .q.h k ",
" Xu b G S V f : y i d = G #X9._ F ;Xb.7.v.|._.B.|. XXXf P.oX&XoXU.;.S B.Y.P m s a ;.z y.C.K.J.p.&.9.n.n.).].].m XX#X3.4.~ ! } ` ",
"M.b ^ f 4 s 4 : : > S F o 4.,X8.u.U.7X;.c.c.n.n.B.|.@Xf G.J.oX%XOXOX|.L L b.9.s s :.z 6.p.J.J.c k.c.).).).`.$X! c.L 8.M.M.!.w.e.",
"j 7.f 0 4 2 1 1 5 s L D y y U.Z C 1 Z *X3.c.c.c.c.|.m.f &XJ.U.Y.oX&X.XB.G 0 _ b.H.>.z *.p.C.A.s oX9.n.n.n.`.].M L ;.a.M._.!...W.",
"( 2.p S V s 6 5 z S J D , L 6.<.>.%.1 c .XK S L L 3.3.OXeX%X,XF.l.j.9.B.].f.( p 8XZ V %.i.p.$.%.uX.Xc.g._.XXh.^ L y.l..X}.h.e.!.",
"3.7.m L S V V Z Z S ^ D X u.6.y.-.>.Z 3 z N.A 3.m.p.3.a =.*X,.8.k.F.P.3X Xe.!.u 3Xm.6 %.z.*.Z %X6.6.N.|.|.|.7.+X&.p.z.oXB.w.e.Q.",
"7.|._ m 3.3.L K 3.3.5.) X a.>.i.,.>.$.%.C 3 uXu.1 z :.t.& G.8.8.F.P.&X+X].d.w.q n.c.u.c l 6 :.%.;.-.V l c V 3.eXu.l.m.L.u.r.q.e.",
"m.eX X5.4.5.r.3.7.4.` ! , }.>.t.i.l.H V C . y.4 $.y.D.<.l t.H.F.j.N.K.}.g.5.M M w.w u B.U.oXz t.F.i.=.%.u.j.: Z G.*.J.z.9.7.D q.",
"a s :Xh.).).s.4.7.4.} p 7.K.t.l.1.y.*.x l @ u.#.%.y.l.>.p.l I.oXL.m.a.a.a.4.q } Y ] U g :XN.6 $.:.=.$.%.>.u.>.& G.y.z.H.u.7._ w.",
"s o L  X5.d.h.r.4.! g ( 6X9.z %.%.#.#.H 5 * ,XU.,.i.y.:.6.s N.F.F.+X6.u.M.j ! W.Q.[ ..' ^ c.v x $.%.$.@.t.j.%.B s Y.z.&X&XM.h.!.",
"d > = 5XXX} ' 5.!.~.Y t q n.x C v Z H 6 s N.L.F.I.u.-.*.%.1 N.}.N.+XM.a.r.7 / !.Q.]  .f.L 7.5 c Z Z c *.:.%.%.H * z.F.&X*X@X).^.",
"z 5 ; oXc.0._.~.h./.E O.r ' 6.Z Z %.4 -.Y.1 : * s H.,.A Z & %Xa.3.c.N.M.( ~ q.W.+.' ' G S 8.4 A &.&.%.%.>.%.V l 3 s T.G.,X|.!.^.",
"4 > > k.9.5.).~.[.Q.X.X.[ k M.H V 5 y.j.6 : * l 4 : x.%.5 u.&.f 8 7 8 q.#X].q.^.f._ 7.d m N.s Z %.H H -.;.Z z V 6 @ <Xj.|.n.e.!.",
"B 6 = k.g.} ).).~.^.E E o.9 c.z z ,.s : 5 z V : V : 4 Y.k.6.D D j j k X !.W...`.v.g.H a ;.1Xs H z ;.C V B s s 3 @ -.uX7Xk.5.` } ",
"B 4 3 ;.g.0.[.~.].^.W W +.r 0.9.&.s c $.Z =.>.x V A : eX=.3.9.D h h h   q.) ) e.5.L H C m.pXc.a s V s B 5 : * * K -.A -.N..X9._ ",
"A B 6 i s.` )._.].(.Y T +.e g.s.s $.>.%.*.Z.T.p.A C : j.J u.9.3.k h 7 9 W.q.} q.3.%.t.x k.f S L S a > % * v @.<.x.1.>.l.5 L.2.! ",
"#.A A : g.G _.).[.h.] Y R r 3XL x Z *.$.=.C.K.K.:.%.; u.x Z D m k 8 O XXn.m ~ ~ _ Z z.s 9._ D 0 d 3.b.7X,Xx.A.Y.E.T.1.1.>.V k._ ",
"#.A A : s.3.c.].n. .) Y Y f.;X6.x c c =.>.t.$.<.>.y.5 y.&.x b D j $ c..X*X_ ( 4.3.L u.4 0.L _ 3.3._ u F .X2XY.I.I.I.<.l.z.V B._ ",
"-.:.A : P.6X6.9.F G U h t 7 # 7.x %.*.=.y.p.t.<.$.z Z ;.6.&.S S , c.m.&.d v.v.^ L L 5 >.L D G 3.3.3.! O B.2X<XE.T.I.y.z.y.B n.` ",
"Z v B y.c..X6XS F G _ ' ~ ~ # L y.K.C.i.t.<.J.U.z.1 &X=.H K 3.2 ;.F.%.z.y.$.x c.j.L 8.8.S ^ L L D S j - s.1X0XqX9XI.y.l.C c.0.P ",
"L ;.0.7.7.f a.&.j.j.7._ U h 7 2.u.:.l.F.z.*.>.D.Z j.5XU.,.;.d x u.l.p.J.Z.l.A.>.-.yXP.d ^ S d x V m m q 6 1X5XwXqX<X-.K k.7Xb.F ",
".XS c.v.|.7.&.8.#.;.u.2.( h 7 S eXy.H A Z 1.K.,.>.L.;.i.%.&.K.U.i.A.S.H.1.T.9X1XV G.&.S j y f f i s m m # V.<X2X<X,.K K < X b.V.",
"|.7.v.q.|.c.S 8.&.$.&.6.D N > u ,X;.8.j.,.i.z.%.R.*.t.,.u.%.$.G.z.<XS.C.A.R.I.A.t.&.F i f d d y i 6 m N 0 F 2X,.-.,.F H G 0 0 7X",
"+Xc.c.r.@X|.d 8.H H H =.;.S # 3.j.y.Z 6 >.%XF.1X1.>.:.*.$.:.6 z.T.H.Z.K.E.A.A.A.F.%.L p m 2.L $.A d V F F = ,X5X,.V P P L p > .X",
"7Xm.r.v.'..XL 7.%.H %.H L , L N.F.j.z.j.B A uXF.,.l.>.1.@.*.l U.-Xi.=XK.S.S.l.T.F.8.s.i S 2.b @.V &.3.^ P y b.k.L u.9.4.P ; L 9.",
"L .X7.c. X+Xc.F H Z %.;.4 s u.F.F.N.N.z.j.& L.F.j.i.D.C.<.l =.oXA.p.T.J.K.l.z.D.c ,X6X9.b b 2.6.&.2.2.^ 5.p 0.6.8.3.7.a.f m 6X3.",
"Z ;.7.g. X.X|.b 6.Z %.B f a.c.oXG.L.N.j.;.: t.l.p.1.t.i.1.1 I.<.A.D.K.J.p.i.A.H m.c.j #X@Xu.2.<.6.2.2.3.7.< s.9.c.7.2.b a.6XpX7.",
"%.V N.c.|. X X3.&.c H 2 6.p.a.D.N.F.z.k.K i &.t.=.t.<.<.>.6 u.>.F.p.D.p.C.K.y.&.J d 0 7 @X4X}.u.6.8.G.M.7.V.c.s.6.L L 3.x 2 S 5."
};
