/* XPM */
static char *_88bf97b630d45059cfd0c1cd8bce79f02AxLXrAase2zTrF[] = {
/* columns rows colors chars-per-pixel */
"64 64 97 2 ",
"   c black",
".  c #010101",
"X  c #020202",
"o  c gray1",
"O  c #040404",
"+  c gray2",
"@  c #060606",
"#  c #070707",
"$  c gray3",
"%  c #090909",
"&  c gray4",
"*  c #0B0B0B",
"=  c #0C0C0C",
"-  c gray5",
";  c #0E0E0E",
":  c gray6",
">  c #101010",
",  c #111111",
"<  c gray7",
"1  c #131313",
"2  c gray8",
"3  c #151515",
"4  c #161616",
"5  c gray9",
"6  c #181818",
"7  c #191919",
"8  c gray10",
"9  c #1B1B1B",
"0  c gray11",
"q  c #1D1D1D",
"w  c #1E1E1E",
"e  c gray12",
"r  c #202020",
"t  c gray13",
"y  c #222222",
"u  c #232323",
"i  c gray14",
"p  c #252525",
"a  c gray15",
"s  c #272727",
"d  c #282828",
"f  c gray16",
"g  c #2A2A2A",
"h  c gray17",
"j  c #2C2C2C",
"k  c #2D2D2D",
"l  c gray18",
"z  c #2F2F2F",
"x  c #313131",
"c  c gray20",
"v  c #343434",
"b  c gray21",
"n  c #373737",
"m  c gray22",
"M  c #393939",
"N  c gray23",
"B  c #3C3C3C",
"V  c gray24",
"C  c #3E3E3E",
"Z  c #3F3F3F",
"A  c gray25",
"S  c #414141",
"D  c gray26",
"F  c #434343",
"G  c #444444",
"H  c gray27",
"J  c gray28",
"K  c #484848",
"L  c #494949",
"P  c #4B4B4B",
"I  c #4C4C4C",
"U  c #535353",
"Y  c gray34",
"T  c #585858",
"R  c #5A5A5A",
"E  c #5B5B5B",
"W  c gray36",
"Q  c #5D5D5D",
"!  c #5F5F5F",
"~  c gray39",
"^  c #656565",
"/  c #6A6A6A",
"(  c #6C6C6C",
")  c #7C7C7C",
"_  c gray50",
"`  c gray51",
"'  c gray57",
"]  c #939393",
"[  c gray58",
"{  c gray64",
"}  c gray67",
"|  c #AFAFAF",
" . c #B9B9B9",
".. c gray94",
"X. c #F6F6F6",
"o. c #FBFBFB",
"O. c #FDFDFD",
/* pixels */
"                                      O 1           O     O   O     -                             O   * *       O             * ",
"                          O       O O         O     *   O O     O O           O       O O               O             O O O     ",
"                        *           O         O                                             6   O         O                     ",
"1 *           * -     O O     * 1   - 6     4   O *         O 4                   O         r O   O         O O                 ",
"6 -           O O       O                 * W 4   f } 1     r  .6           O             O                 O                   ",
"                                      C * -         r O     4 6 -         * 4       1                 *     O   O *             ",
"          O     O                     ~ f   -   O     4     - * 1 0     *   4 - - * O O               *     - * *     *         ",
"                  O             1     1 4   a *   -       1     - * * 4 1 1     O   O       O                                   ",
"                O       4 -     - -     -   4 O   O     C O         4   * 4   *   1                     O             O     O   ",
"      O         O           O   a m     - O           O ' ~ *       O           O *       *     O       * 4   O                 ",
"      O       -       O *     O             O O     O   J 1     -     r         O         O     O               *     O O       ",
"  O         1 1   O I O *   O 6   a 6       * O                 1     O   *     1 -   O   O       O K -               *         ",
"            O 1 O 4 a                                   6 *   4 O                   O O O O - *     K 1               * l       ",
"O                 O           *   *                           O       O   O O 1         *   6 0   *                   - E       ",
"                  *   6                   O                             O     O       *     O                     O         O O ",
"          O     O     -     - O     O           O O               - O   O   O         O               * O - O   O               ",
"        O   1   A 6 * *       *           6 -     - O         4 O       f O O O     -       O         O   - O                 O ",
"O             O O O O O             b O   C r     * - * O * l   O O O     6   O O * -       -   O   4 1 O O O     O       -   O ",
"-                             O     r - a _ f 0 O O   * * O         O   -                   1 * -     * O 0           O       E ",
"O     O   -     O O           O O   O [     O                       O         O O                         -           O   *   6 ",
"          O         O               * 4                                 *                 * 1           O 1   O       * O   0   ",
"              0 a                                         J f             O O               O                       * * O   J O ",
"              ' X.1     O               *                 * O                                                       - O         ",
"          -   r W *                         O     1 O                               O O   1   *                   O             ",
"    O     4   O                 O O               f 1           O   O 1         *                         O     O O         O * ",
"O O O O   O                         O   O -           O         O   O 6               O     O       O *                   O     ",
"      O         O                                     *     a f                       O *       *     O                         ",
"  O       I -                     1     O             O     - -                       O 6     *       O     O                   ",
"O O       * O                     -     O O                                         - O                       r 4   O       O   ",
"O                                           O r           O     O 6           *     - { b       *       O O   - O - O           ",
"  O       -           *                                         O *                 O C 1   l           1             *         ",
"          J           O             O   O   O                     6 4                       -       *   l -         ^ 1   O   * ",
"    O               O   0 1                                 O O         O O                               C   -     W *         ",
"      O         O         *   -         O         *     1     *           1 *       O     * - 4               4                 ",
"                      O               1           *                                       O 1 1   O           O -     *   O O   ",
"O         4 O                   W O                       A -                 O         m 1 6 6         O                       ",
"                    * -     4 *                           K 1               C m         W a               O   O *   O     C *   ",
"  *         O   O O O       6 *             O 6                             1 1               * 1                               ",
"O     x *         O       O     4 O           O                                               r l 1 O O     1 *         O       ",
"O     *     O           O       *         O               O 1           O   -       f 1 O         6 *       * O             O   ",
"* a           * O * O       *         O O                 O 4           O O O       O *           *                 -       * O ",
"  *               - 1       O       O     O               O     O 4 O     O 1                 *       O O           O     O     ",
"            *             - O * O     O     * - _   O     O   *   C 1   l                   O                             O     ",
"  m O       -             1 O * O - O       1 * f O         * W   O     O   O           O   O                                   ",
"  0 A                       *     * O       1 4     O         -         O   *                                                   ",
"    1   4 O O       *         *                 O     O           - O O - O             0 U     O             O           *     ",
"                    l -       * 1   6 O         O - O O O   0 1     -         O O       * 0   O O               O       O O O O ",
"                    *         * -   -     O         *     O O O               - 4 -                 1                       4 O ",
"                            *     O         *             O - O           * - - 1 f   *   O             O           O O O     O ",
"        * O     -           - 0                             *           - O *                 * *       * -     *       - *     ",
"        O                     -       O           O *     O     O a     O       * 1     * O   O   *     b - *   *               ",
"              O           O   * 1     O             O -   O     1 ` 6 O *               * O       O     1 O       -           * ",
"                          - O                   O         O *   1 6           * O                 O         O   *       *       ",
"  -                     O                       O                 a                                                             ",
"                                    O     O               / l         * *                                         O   *         ",
"* 1                                                       *       1 U -             O O -               * O   O                 ",
"                            O -               O                   r ..C                                                         ",
"                                  -             O O                 0 1               O *                       O     I 4       ",
"                            x 0     a *     O   O O             l W           O       * -       O a   O O       6   K O.A       ",
"                      O A f O.A                             O   * 4                         *       O               E } 6       ",
"  O l O   0               r m                           1 1                           * 1   O                           *       ",
"  4 r                                                   x (                           O                                         ",
"                                                                O                                                     *         ",
"        O                                             O O - *                                                 *       -         "
};
